<?xml version="1.0" encoding="UTF-8"?>
<svg width="117px" height="57px" viewBox="0 0 117 57" version="1.1" xmlns="http://www.w3.org/2000/svg" xmlns:xlink="http://www.w3.org/1999/xlink">
    <!-- Generator: Sketch 49.2 (51160) - http://www.bohemiancoding.com/sketch -->
    <title>logo_light</title>
    <desc>Created with Sketch.</desc>
    <defs></defs>
    <g id="Page-1" stroke="none" stroke-width="1" fill="none" fill-rule="evenodd">
        <g id="logo_light" transform="translate(1.000000, 1.000000)">
            <g id="logo" stroke="#1F8BD2" stroke-width="2">
                <g id="Group">
                    <circle id="Oval" cx="13.9418868" cy="14.1109434" r="13.6249057"></circle>
                    <path d="M20.5562264,20.4241509 C17.0695693,24.0740457 11.2842645,24.2064162 7.6343208,20.7198103 C3.98437713,17.2332045 3.85192538,11.4479015 7.33848,7.79790887 C10.8250347,4.14791629 16.6103359,4.01538336 20.2603773,7.5018868" id="Shape" stroke-linecap="round"></path>
                    <path d="M17.4867925,17.4920755 C16.1189863,18.9253811 14.0223395,19.3933693 12.1748735,18.6777379 C10.3274076,17.9621065 9.09311487,16.203851 9.04775513,14.2231437 C9.00239547,12.2424365 10.1549056,10.4295214 11.9676749,9.6300678 C13.7804443,8.8306142 15.8963165,9.20213253 17.3283019,10.5713207" id="Shape" stroke-linecap="round"></path>
                </g>
                <path d="M20.7723036,35.0612962 C23.6414293,33.4048019 26.8487209,30.643978 27.9530438,27.0575873 C28.0918185,26.6705662 27.91346,26.2403973 27.5437326,26.0704018 C27.1740052,25.9004062 26.7376098,26.0479199 26.5422582,26.4089277 C22.0615608,32.5738743 17.4699028,32.4291321 17.4699028,32.4291321 C17.3091375,32.4489675 17.1513338,32.3738687 17.0635877,32.2357667 C16.9758416,32.0976646 16.9735796,31.9208386 17.0577632,31.7804725 C17.3757235,31.2231371 17.4756759,30.5649374 17.3378068,29.9363493 C17.1081459,28.8866394 16.2557674,28.0948354 15.2049417,27.9550567 C14.1541159,27.815278 13.129362,28.3573898 12.6407501,29.3115565 C12.1521381,30.2657232 12.3040647,31.428078 13.0209086,32.22006 C13.1444221,32.3371155 13.1849737,32.5188157 13.1232082,32.6784352 C13.0614427,32.8380547 12.9098815,32.943234 12.740865,32.9437711 C11.2337502,32.9922971 9.73032486,32.7653136 8.30243839,32.2736683 C5.83488455,31.2819159 3.30920846,30.0489267 1.88785518,28.0654221 C1.75047531,27.8777932 1.61837928,27.6794428 1.49156709,27.4810924 C1.26519183,27.1354626 0.821114932,27.0140384 0.454209116,27.197447 C0.0873033012,27.3808554 -0.0883887987,27.8120892 0.0437946077,28.2048035 L0.0437946077,28.2476901 C2.59060606,34.5627397 10.3631365,36.2245949 11.3406471,36.5623267 C13.3326552,37.2431513 14.6483317,38.3850066 14.6483317,41.4889232 C14.6483317,46.1367568 8.33942526,44.8072728 7.19811559,50.5004669 C6.95548559,51.6663958 7.00453226,52.8754108 7.34077926,54.0171669 C7.47431633,54.5242914 7.88736326,54.9056403 8.39754753,54.9928367 C8.74543412,55.0306225 9.09288919,54.9177493 9.35444412,54.6819821 C9.61599906,54.446215 9.76737879,54.1094356 9.77134626,53.7544866 C9.80833312,51.8942809 10.5058001,48.5973747 14.9812137,48.5973747 C17.596715,48.5973747 18.4421296,50.6023225 20.2175002,52.2266519 C21.2195432,53.1806182 22.5420738,53.7115873 23.916189,53.7115999 C24.519781,53.6666524 25.0190467,53.2173987 25.1351258,52.6147654 C25.2512049,52.0121322 24.9553754,51.4052322 24.4128702,51.133044 C22.0107743,49.8860469 20.314687,47.5791081 19.8212122,44.8876851 C19.7386558,44.4418919 19.6909528,43.9901766 19.6785484,43.5367577 C19.657566,42.9788158 19.6929765,42.4201609 19.7842252,41.8695417 C19.7842252,41.826655 19.7842252,41.7837685 19.7842252,41.7355211 L19.7842252,41.6283046 C19.8756134,41.0758983 19.9110235,40.5154513 19.8899021,39.9557278 C19.8899021,39.7037691 19.8634829,39.4571713 19.8370637,39.2105733 C19.7101295,38.067951 19.3617602,36.9620697 18.8119985,35.9565538 C19.4874791,35.7105426 20.1429203,35.4112073 20.7723036,35.0612962 Z" id="Shape"></path>
            </g>
            <g id="text" transform="translate(40.000000, 1.000000)" fill="#1F8BD2">
                <g id="By-Cryptoconomy" transform="translate(5.000000, 40.000000)" font-family="SFUIDisplay-Ultralight, SF UI Display" font-size="10" font-weight="200">
                    <text>
                        <tspan x="0" y="10">By Cryptoconomy</tspan>
                    </text>
                </g>
                <g id="Atlas" font-family="SFUIText-Light, SF UI Text" font-size="34" font-weight="300">
                    <text>
                        <tspan x="0" y="32">Atlas</tspan>
                    </text>
                </g>
            </g>
        </g>
    </g>
</svg>